<svg id="visual" viewBox="0 0 900 900" width="900" height="900" xmlns="http://www.w3.org/2000/svg" xmlns:xlink="http://www.w3.org/1999/xlink" version="1.1"><g><g transform="translate(552 704)"><path d="M0 -147.9L128.1 74L-128.1 74Z" fill="none" stroke="#2ac1a8" stroke-width="2"></path></g><g transform="translate(478 137)"><path d="M0 -92L79.7 46L-79.7 46Z" fill="none" stroke="#2ac1a8" stroke-width="2"></path></g><g transform="translate(386 442)"><path d="M0 -93L80.5 46.5L-80.5 46.5Z" stroke="#2ac1a8" fill="none" stroke-width="2"></path></g><g transform="translate(831 826)"><path d="M0 -123L106.5 61.5L-106.5 61.5Z" stroke="#2ac1a8" fill="none" stroke-width="2"></path></g><g transform="translate(832 133)"><path d="M0 -125L108.3 62.5L-108.3 62.5Z" stroke="#2ac1a8" fill="none" stroke-width="2"></path></g><g transform="translate(227 740)"><path d="M0 -111L96.1 55.5L-96.1 55.5Z" stroke="#2ac1a8" fill="none" stroke-width="2"></path></g><g transform="translate(85 360)"><path d="M0 -80L69.3 40L-69.3 40Z" stroke="#2ac1a8" fill="none" stroke-width="2"></path></g><g transform="translate(752 442)"><path d="M0 -68L58.9 34L-58.9 34Z" stroke="#2ac1a8" fill="none" stroke-width="2"></path></g><g transform="translate(78 42)"><path d="M0 -138L119.5 69L-119.5 69Z" stroke="#2ac1a8" fill="none" stroke-width="2"></path></g></g></svg>