<?xml version="1.0" encoding="UTF-8"?>
<svg id="Layer_1" data-name="Layer 1" xmlns="http://www.w3.org/2000/svg" viewBox="0 0 1800 468">
  <defs>
    <style>
      .cls-1 {
        fill: #2ac1a8;
      }

      .cls-2 {
        fill: #4b71d8;
      }
    </style>
  </defs>
  <g>
    <g>
      <polygon class="cls-1" points="375 182 360 156 345 130 330 104 315 78 300 52 285 26 270 0 240 0 210 0 180 0 195 26 210 52 225 78 240 104 255 130 270 156 285 182 300 208 315 234 330 260 345 234 360 208 375 182"/>
      <polygon class="cls-1" points="690 0 660 0 630 0 615 26 600 52 585 78 570 104 555 130 540 156 525 182 510 208 495 234 480 260 465 286 450 312 435 338 420 364 405 390 390 416 375 442 360 468 390 468 420 468 450 468 465 442 480 416 495 390 510 364 525 338 540 312 555 286 570 260 585 234 600 208 615 182 630 156 645 130 660 104 675 78 690 52 705 26 720 0 690 0"/>
    </g>
    <polygon class="cls-2" points="570 0 540 0 510 0 495 26 480 52 465 78 450 104 435 130 420 156 405 182 390 208 375 234 360 260 345 286 330 312 315 286 300 260 285 234 270 208 255 182 240 156 225 130 210 104 195 78 180 52 165 26 150 0 120 0 90 0 60 0 30 0 0 0 15 26 30 52 45 78 75 78 105 78 120 104 135 130 150 156 165 182 180 208 195 234 210 260 225 286 240 312 255 338 270 364 285 390 300 416 315 442 330 468 345 442 360 416 375 390 390 364 405 338 420 312 435 286 450 260 465 234 480 208 495 182 510 156 525 130 540 104 555 78 570 52 585 26 600 0 570 0"/>
  </g>
  <polygon class="cls-1" points="930 0 900 0 915 26 930 52 945 26 960 0 930 0"/>
  <g>
    <polygon class="cls-1" points="840 312 870 312 885 286 900 260 870 260 840 260 825 286 810 312 840 312"/>
    <path class="cls-1" d="M1455,390l15-26,15-26,15-26-15-26-15-26h-120l-15,26-15,26-15,26-15,26-15,26-15,26-15,26-15,26h60l15-26,15-26h60l-15,26-15,26h60l15-26,15-26,15-26ZM1365,338l15-26h60l-15,26-15,26h-60l15-26Z"/>
    <polygon class="cls-1" points="1560 416 1530 416 1545 390 1560 364 1575 338 1590 312 1605 286 1620 260 1590 260 1561 260 1560 260 1531 260 1501 260 1516 286 1530.5 311.13 1530 312 1515 338 1500 364 1485 390 1470 416 1455 442 1440 468 1470 468 1500 468 1530 468 1560 468 1575 442 1590 416 1560 416"/>
    <polygon class="cls-1" points="1245 390 1260 364 1275 338 1290 312 1305 286 1320 260 1290 260 1260 260 1245 286 1230 312 1215 338 1200 364 1185 390 1170 416 1140 416 1110 416 1125 390 1140 364 1155 338 1170 312 1185 286 1200 260 1170 260 1140 260 1125 286 1110 312 1095 338 1080 364 1065 390 1050 416 1035 442 1020 468 1050 468 1080 468 1110 468 1140 468 1170 468 1200 468 1215 442 1230 416 1245 390"/>
    <polygon class="cls-1" points="1035 390 1050 364 1065 338 1035 338 1005 338 975 338 945 338 960 312 990 312 1020 312 1050 312 1080 312 1095 286 1110 260 1080 260 1050 260 1020 260 990 260 960 260 930 260 915 286 900 312 885 338 870 364 855 390 885 390 915 390 945 390 975 390 960 416 930 416 900 416 870 416 840 416 825 442 810 468 840 468 870 468 900 468 930 468 960 468 990 468 1005 442 1020 416 1035 390"/>
    <polygon class="cls-1" points="1725 338 1695 338 1665 338 1680 312 1710 312 1740 312 1770 312 1800 312 1785 286 1770 260 1740 260 1710 260 1680 260 1650 260 1635 286 1620 312 1605 338 1590 364 1575 390 1605 390 1635 390 1665 390 1695 390 1680 416 1650 416 1620 416 1605 442 1590 468 1620 468 1650 468 1680 468 1710 468 1725 442 1740 416 1755 390 1770 364 1785 338 1755 338 1725 338"/>
    <polygon class="cls-1" points="825 390 840 364 855 338 825 338 795 338 780 364 765 390 750 416 735 442 720 468 750 468 780 468 795 442 810 416 825 390"/>
    <polygon class="cls-1" points="675 338 660 312 645 286 630 260 615 286 600 312 615 338 630 364 645 390 660 364 675 338"/>
    <polygon class="cls-1" points="735 390 750 364 765 338 780 312 795 286 810 260 780 260 750 260 735 286 720 312 705 338 690 364 675 390 660 416 675 442 690 468 705 442 720 416 735 390"/>
  </g>
  <g>
    <polygon class="cls-2" points="1440 52 1455 26 1470 0 1440 0 1425 26 1410 52 1440 52"/>
    <polygon class="cls-2" points="1635 26 1620 0 1590 0 1560 0 1530 0 1500 0 1485 26 1470 52 1455 78 1440 104 1425 130 1410 156 1395 182 1380 208 1410 208 1440 208 1455 182 1470 156 1485 130 1500 104 1515 78 1530 52 1560 52 1590 52 1620 52 1650 52 1635 26"/>
    <polygon class="cls-2" points="1395 130 1410 104 1425 78 1395 78 1365 78 1335 78 1305 78 1320 52 1350 52 1380 52 1395 26 1410 0 1380 0 1350 0 1320 0 1290 0 1275 26 1260 52 1245 78 1230 104 1215 130 1245 130 1275 130 1305 130 1335 130 1320 156 1290 156 1260 156 1230 156 1200 156 1185 182 1170 208 1200 208 1230 208 1260 208 1290 208 1320 208 1350 208 1365 182 1380 156 1395 130"/>
    <polygon class="cls-2" points="1140 156 1110 156 1080 156 1050 156 1065 130 1095 130 1125 130 1155 130 1185 130 1200 104 1215 78 1185 78 1155 78 1125 78 1095 78 1110 52 1140 52 1170 52 1200 52 1230 52 1245 26 1260 0 1230 0 1200 0 1170 0 1140 0 1110 0 1080 0 1065 26 1050 52 1035 78 1020 104 1005 130 990 156 975 182 960 208 990 208 1020 208 1050 208 1080 208 1110 208 1140 208 1155 182 1170 156 1140 156"/>
    <polygon class="cls-2" points="975 130 990 104 1005 78 1020 52 1035 26 1050 0 1020 0 990 0 975 26 960 52 945 78 930 104 915 78 900 52 885 26 870 0 840 0 810 0 780 0 765 26 750 52 780 52 810 52 840 52 855 78 870 104 885 130 900 156 915 182 930 208 945 182 960 156 975 130"/>
  </g>
</svg>