<?xml version="1.0" encoding="UTF-8"?>
<svg id="Layer_1" data-name="Layer 1" xmlns="http://www.w3.org/2000/svg" viewBox="0 0 768 768">
  <defs>
    <style>
      .cls-1 {
        fill: #2ac1a8;
      }

      .cls-2 {
        fill: #4b71d8;
      }
    </style>
  </defs>
  <g>
    <polygon class="cls-1" points="399 332 384 306 369 280 354 254 339 228 324 202 309 176 294 150 264 150 234 150 204 150 219 176 234 202 249 228 264 254 279 280 294 306 309 332 324 358 339 384 354 410 369 384 384 358 399 332"/>
    <polygon class="cls-1" points="714 150 684 150 654 150 639 176 624 202 609 228 594 254 579 280 564 306 549 332 534 358 519 384 504 410 489 436 474 462 459 488 444 514 429 540 414 566 399 592 384 618 414 618 444 618 474 618 489 592 504 566 519 540 534 514 549 488 564 462 579 436 594 410 609 384 624 358 639 332 654 306 669 280 684 254 699 228 714 202 729 176 744 150 714 150"/>
  </g>
  <polygon class="cls-2" points="594 150 564 150 534 150 519 176 504 202 489 228 474 254 459 280 444 306 429 332 414 358 399 384 384 410 369 436 354 462 339 436 324 410 309 384 294 358 279 332 264 306 249 280 234 254 219 228 204 202 189 176 174 150 144 150 114 150 84 150 54 150 24 150 39 176 54 202 69 228 99 228 129 228 144 254 159 280 174 306 189 332 204 358 219 384 234 410 249 436 264 462 279 488 294 514 309 540 324 566 339 592 354 618 369 592 384 566 399 540 414 514 429 488 444 462 459 436 474 410 489 384 504 358 519 332 534 306 549 280 564 254 579 228 594 202 609 176 624 150 594 150"/>
</svg>